<svg xmlns="http://www.w3.org/2000/svg" version="1.1" xmlns:xlink="http://www.w3.org/1999/xlink" xmlns:svgjs="http://svgjs.dev/svgjs" width="100%" height="100%" viewBox="0 0 1000 600"><rect width="1000" height="600" x="0" y="0" fill="#072c50"/><g><circle r="166.66666666666666" cx="323.31855265299475" cy="345.5407800189654" fill="#b18746" transform="matrix(0.7979477780583062,0,0,0.7979477780583062,0,24.27653717535796)"/><path d="M236.8158371489764 412.4656258821652L236.8158371489764 412.4656258821652Q228.65355974808836 399.59769389428834 220.8398493536439 383.6217060989559Q213.0261389591995 367.6457183036234 206.69383834214042 350.74021849110795Q200.36153772508138 333.8347186785925 196.58539515527553 318.17825063916666Q192.80925258546966 302.49273534920394 192.80925258546966 290.1476538709925L192.80925258546966 290.1476538709925Q192.80925258546966 287.4753068215914 193.94209535641141 285.935802543132L193.94209535641141 285.935802543132Q196.26587539936887 282.68251048299163 199.6934509627311 279.1677931680185Q203.12102652609335 275.62402860250836 207.8266811130822 271.76074428109166L207.8266811130822 271.76074428109166Q209.33713814100452 270.5407597585389 210.67331166570506 270.5407597585389L210.67331166570506 270.5407597585389Q212.0094851904056 270.5407597585389 213.34565871510614 271.76074428109166L213.34565871510614 271.76074428109166Q218.13845505370588 275.62402860250836 221.5079361159942 279.1677931680185Q224.87741717828249 282.68251048299163 227.23024447177693 285.935802543132L227.23024447177693 285.935802543132Q228.3340399921817 287.4753068215914 228.3340399921817 290.4381263763621L228.3340399921817 290.4381263763621L228.3340399921817 290.0314648688446Q228.3340399921817 298.71659277939807 230.74496178675005 310.91643800492466Q233.1558835813184 323.11628323045124 237.39678215971577 336.5361129785306Q241.60863348757613 349.9849899771468 247.06951658852614 362.591496710191Q252.55944694001312 375.19800344323517 258.7755585549243 384.5802653666759L258.7755585549243 384.5802653666759L259.38555081620063 384.5802653666759Q266.2407019429251 375.19800344323517 271.788726795486 362.67863846180194Q277.36579889858393 350.1883207309056 281.40336672322246 336.7975382333633Q285.44093454786105 323.4358029863579 287.6194783381337 311.2359577608313Q289.8270693789433 299.0070652847677 289.8270693789433 290.1476538709925L289.8270693789433 290.1476538709925L289.8270693789433 290.4381263763621Q289.8270693789433 287.4753068215914 290.84372314773714 285.935802543132L290.84372314773714 285.935802543132Q295.7527084884847 279.19684041855544 304.3216473968904 271.76074428109166L304.3216473968904 271.76074428109166Q305.9482934269606 270.5407597585389 307.16827794951325 270.5407597585389L307.16827794951325 270.5407597585389Q308.30112072045495 270.5407597585389 309.84062499891434 271.76074428109166L309.84062499891434 271.76074428109166Q314.43009058375526 275.62402860250836 317.71242989443266 279.1677931680185Q320.9657219545731 282.68251048299163 323.3185492480675 285.935802543132L323.3185492480675 285.935802543132Q324.33520301686144 287.59149582373925 324.33520301686144 290.3509846247512L324.33520301686144 290.3509846247512Q324.33520301686144 299.61705754604407 321.7209504685343 311.8459500221077Q319.13574517074414 324.04579524763426 314.63342133751405 337.61086124839835Q310.13109750428396 351.20497449969946 304.43783639903825 364.77004050046355Q298.7155280432555 378.36415375176466 292.3832274261964 390.6801879794392Q286.0509268091374 402.96717495657674 279.7186261920783 412.4656258821652L279.7186261920783 412.4656258821652Q274.4029793438132 420.5407615314424 265.2240481741312 420.5407615314424L265.2240481741312 420.5407615314424L251.10708441316473 420.5407615314424Q241.9281532434828 420.5407615314424 236.8158371489764 412.4656258821652ZM192.80925258546966 290.4381263763621L192.80925258546966 290.0314648688446L192.80925258546966 290.1476538709925L192.80925258546966 290.4381263763621ZM324.33520301686144 290.3509846247512L324.33520301686144 290.1476538709925L324.33520301686144 290.4381263763621L324.33520301686144 290.3509846247512ZM402.23992895700997 371.6251916271881L402.23992895700997 371.6251916271881Q399.59662915814584 371.6251916271881 397.7666523743169 370.2890181024875L397.7666523743169 370.2890181024875Q395.82048658834003 368.981891828324 393.1771867894759 366.51287553268173Q390.50483974007483 364.07290648757635 387.25154767993433 360.50009467152927L387.25154767993433 360.50009467152927Q386.0315631573817 359.07677939521784 386.0315631573817 357.94393662427603L386.0315631573817 357.94393662427603Q386.0315631573817 356.81109385333434 387.25154767993433 355.3877785770229L387.25154767993433 355.3877785770229Q393.58384829699344 348.24215494492876 398.78330614311074 344.87267388264047L398.78330614311074 344.87267388264047Q400.00329066566337 344.0593508676053 402.23992895700997 344.0593508676053L402.23992895700997 344.0593508676053Q409.2112690858823 344.0593508676053 414.2654906793148 338.830845770951Q419.3197122727472 333.6313879248337 419.1163815189884 321.98344045950955L419.1163815189884 321.98344045950955Q419.00019251684057 309.4350282275393 412.9293171546142 304.4389011351808Q406.85844179238785 299.4137267922853 396.34333709800546 299.4137267922853L396.34333709800546 299.4137267922853L391.4343517572578 299.4137267922853Q384.6953896326812 299.4137267922853 382.2263733370389 302.28940459544515Q379.78640429193354 305.136035148068 379.78640429193354 312.07832802640337L379.78640429193354 312.07832802640337L379.78640429193354 415.1379729315663Q379.78640429193354 418.18793423794796 378.508325268307 419.3788715099637Q377.23024624468036 420.5407615314424 374.1802849382987 420.5407615314424L374.1802849382987 420.5407615314424L352.4238942861096 420.5407615314424Q349.344885729191 420.5407615314424 348.0668067055644 419.3788715099637Q346.8177749324748 418.18793423794796 346.8177749324748 415.1379729315663L346.8177749324748 415.1379729315663L346.8177749324748 301.47608158041Q346.8177749324748 291.2514493913973 348.7058462173777 285.29676303131873Q350.5939175022806 279.31302942070334 356.0548006032306 276.6987768723762Q361.5156837041806 274.11357157458605 372.0307883985631 274.11357157458605L372.0307883985631 274.11357157458605L396.34333709800546 274.11357157458605Q425.6520128898063 274.11357157458605 439.73992940023584 285.58723553668847Q453.82784591066536 297.08994674932785 453.82784591066536 320.7634559369569L453.82784591066536 320.7634559369569Q453.82784591066536 338.54037326558137 446.4207970237385 349.78165922338803Q439.0137481368116 360.9938979306577 427.2205644188026 366.30954477892294Q415.4273807007935 371.6251916271881 402.23992895700997 371.6251916271881Z " fill="#072c50" transform="matrix(0.7979477780583062,0,0,0.7979477780583062,0,24.27653717535796)"/><path d="M605.9522544285953 310.6500140855778L605.9522544285953 412.6626536963896Q605.9522544285953 415.6816297840827 604.6871596870858 416.8604680659438Q603.4220649455763 418.01055419458885 600.4030888578832 418.01055419458885L600.4030888578832 418.01055419458885L578.8677260990055 418.01055419458885Q575.8199978580963 418.01055419458885 574.5549031165867 416.8604680659438Q573.3185605282933 415.6816297840827 573.3185605282933 412.6626536963896L573.3185605282933 412.6626536963896L573.3185605282933 300.15547816169226Q573.3185605282933 290.0347202296162 575.1874504873415 284.1405288203106Q577.0563404463896 278.2175852577888 582.4617452510212 275.6298914683375Q587.8671500556527 273.07094983210243 598.2754295198899 273.07094983210243L598.2754295198899 273.07094983210243L625.0724363173185 273.07094983210243Q677.832637468908 273.07094983210243 677.832637468908 313.5827337136226L677.832637468908 313.5827337136226Q677.832637468908 325.91740744334027 673.692327405786 333.79549742455856Q669.5232651894479 341.7023395589929 663.3703044011971 346.1014190010601Q657.1885914597302 350.5004984431272 651.2368957439924 352.71441424076886L651.2368957439924 352.71441424076886L651.2368957439924 353.203200845443Q658.0224039029979 357.6597845939424 664.1178603848164 364.9053272044058Q670.242069019851 372.1221176616532 675.1874393730245 380.5464985539779Q680.1615618794142 388.9996315995186 683.583068112133 397.25149957254655Q687.033326498068 405.47461539235826 688.3271733927936 411.9438498659864L688.3271733927936 411.9438498659864Q688.9309686103323 414.99157810689564 688.3846776992259 416.48669007413423Q687.8383867881196 418.01055419458885 684.9056671600748 418.01055419458885L684.9056671600748 418.01055419458885L661.5589187485812 418.01055419458885Q658.9137206526977 418.01055419458885 656.9585742340012 416.88922021915994Q654.9746756620887 415.7966383969472 653.3645550819856 411.7425847934736L653.3645550819856 411.7425847934736Q645.6877301732802 392.44988998545364 635.6819808540687 380.2589770218166Q625.6762315348572 368.06806405817963 616.3605338928326 360.7075128348516L616.3605338928326 360.7075128348516Q610.4088381770947 355.93465540097486 610.4088381770947 353.9220046758461L610.4088381770947 353.9220046758461Q610.4088381770947 352.31188409574304 612.335232442575 349.4654209273467L612.335232442575 349.4654209273467Q613.5428228776524 347.76904388759533 615.8717472881585 345.3251108642247Q618.1719195454485 342.9099299940701 619.8970487384161 341.7023395589929L619.8970487384161 341.7023395589929Q621.6221779313835 340.49474912391565 622.6860076003802 340.17847543853827Q623.7498372693767 339.8622017531609 625.9637530670184 339.8622017531609L625.9637530670184 339.8622017531609Q633.439312903211 339.8622017531609 638.4421875628167 334.71556632747456Q643.4450622224224 329.5689309017881 643.4450622224224 318.4418476071478L643.4450622224224 318.4418476071478Q643.4450622224224 307.91855953004597 638.1546660306554 303.03069348330473Q632.8355176856722 298.11407528334735 623.5485721968639 298.11407528334735L623.5485721968639 298.11407528334735L617.4818678682615 298.11407528334735Q610.8113683221204 298.11407528334735 608.3674352987498 300.96053845174373Q605.9522544285953 303.77824946692397 605.9522544285953 310.6500140855778L605.9522544285953 310.6500140855778ZM764.031592810851 418.01055419458885L733.3242931760294 418.01055419458885Q722.9160137117921 418.01055419458885 717.5106089071605 415.39410825192147Q712.076451949313 412.74891015603794 710.2075619902648 406.7972144403001Q708.3386720312167 400.8167665713461 708.3386720312167 390.926025864999L708.3386720312167 390.926025864999L708.3386720312167 300.15547816169226Q708.3386720312167 290.0347202296162 710.2075619902648 284.1405288203106Q712.076451949313 278.2175852577888 717.5106089071605 275.6298914683375Q722.9160137117921 273.07094983210243 733.3242931760294 273.07094983210243L733.3242931760294 273.07094983210243L761.1276253360223 273.07094983210243Q785.3656904972157 273.07094983210243 798.4191680573365 281.95536517588505Q811.4438934642412 290.83978051966767 811.4438934642412 307.0272427803461L811.4438934642412 307.0272427803461Q811.4438934642412 315.0203413744289 807.8211221590094 321.57583230770535Q804.1695987005616 328.160075394198 798.2754072912559 332.7891720619941Q792.3524637287342 337.4470208830064 785.3656904972157 339.77594529351256L785.3656904972157 339.77594529351256L785.3656904972157 340.17847543853827Q794.2788579942146 341.3860658736155 801.4381441450296 345.9864103881955Q808.6261824490609 350.5867549027756 812.9102532782636 357.9185539728875Q817.2230762606823 365.25035304299934 817.2230762606823 374.7385636043206L817.2230762606823 374.7385636043206Q817.2230762606823 388.8846229866541 810.3800637952445 398.5453464672722Q803.5658034830228 408.2060699478902 791.5761555918988 413.09393599463147Q779.6152598539907 418.01055419458885 764.031592810851 418.01055419458885L764.031592810851 418.01055419458885ZM741.0011180847348 309.6436887230135L741.0011180847348 381.3228066908133Q741.0011180847348 388.0795626966027 743.4162989548893 391.01228232464746Q745.8602319782599 393.9450019526921 752.530731524401 393.9450019526921L752.530731524401 393.9450019526921L760.2075564331063 393.9450019526921Q770.4145708248308 393.9450019526921 776.6250359195137 388.6833579141413Q782.8355010141968 383.45046602880655 782.8355010141968 374.33603345929487L782.8355010141968 374.33603345929487Q782.8355010141968 365.65288318802516 776.7687966855943 360.7075128348516Q770.7308445102082 355.73339032846195 761.1276253360223 355.73339032846195L761.1276253360223 355.73339032846195L761.2138817956707 355.73339032846195Q758.7987009255162 355.73339032846195 757.5623583372228 355.043338651275L757.5623583372228 355.043338651275Q754.9459123945554 353.3182094583075 752.1569535325913 351.0467893542336Q749.3967468238433 348.77536925015966 746.1477535104211 345.5263759367375L746.1477535104211 345.5263759367375Q745.1414281478568 344.23252904201195 745.1414281478568 343.5999816712572L745.1414281478568 343.5999816712572Q745.1414281478568 342.79492138120565 746.1477535104211 341.7023395589929L746.1477535104211 341.7023395589929Q749.3967468238433 338.45334624557074 752.1569535325913 336.1244218350647Q754.9459123945554 333.79549742455856 757.5623583372228 332.1853768444555L757.5623583372228 332.1853768444555Q758.9999659980291 331.49532516726856 761.2138817956707 331.49532516726856L761.2138817956707 331.49532516726856L761.1276253360223 331.49532516726856Q767.0793210517602 331.49532516726856 772.082195711366 327.0387414187692Q777.0850703709717 322.5821576702698 777.0850703709717 313.09394710894844L777.0850703709717 313.09394710894844Q777.0850703709717 303.49072793476273 771.7371698727725 300.2992389277729Q766.3605172213571 297.10774992078296 757.9936406354647 297.10774992078296L757.9936406354647 297.10774992078296L752.530731524401 297.10774992078296Q745.8602319782599 297.10774992078296 743.4162989548893 299.95421308917935Q741.0011180847348 302.77192410435964 741.0011180847348 309.6436887230135L741.0011180847348 309.6436887230135ZM919.5232374036553 281.03529627296905L919.5232374036553 281.03529627296905Q925.0724029743674 288.8271297945389 930.8803379240247 301.10429921782435Q936.6882728736819 313.3814686411098 942.1511819847458 328.0450667813335Q947.6140910958095 342.70866492155733 952.0131705378767 358.0048104325358Q956.4122499799437 373.32970809673054 959.229960995124 387.4757674790641Q962.0764241635204 401.6218268613975 962.478954308546 412.6626536963896L962.478954308546 412.6626536963896Q962.5652107681944 418.01055419458885 957.619840415021 418.01055419458885L957.619840415021 418.01055419458885L933.1517580280986 418.01055419458885Q928.4076527474379 418.01055419458885 928.206387674925 413.26644891392823L928.206387674925 413.26644891392823Q927.8038575298992 401.9381005467749 924.5548642164772 385.7793904393127L924.5548642164772 385.7793904393127L869.3794821947331 385.7793904393127Q866.5330190263369 401.53557040174917 866.1304888813111 413.26644891392823L866.1304888813111 413.26644891392823Q865.9292238087983 418.01055419458885 860.9838534556247 418.01055419458885L860.9838534556247 418.01055419458885L837.0333098265925 418.01055419458885Q835.1931720207605 418.01055419458885 833.9855815856832 416.94672452559223Q832.777991150606 415.8828948565956 832.8929997634705 413.26644891392823L832.8929997634705 413.26644891392823Q833.3817863681446 402.05310915963946 836.1707452301087 387.73453685800916Q838.9597040920728 373.444716709595 843.3875356873561 358.0623147389681Q847.8441194358555 342.70866492155733 853.3070285469194 327.9875624749013Q858.7699376579831 313.29521218146135 864.6353769140726 301.0467949113921Q870.472064016946 288.8271297945389 876.0499817408743 281.03529627296905L876.0499817408743 281.03529627296905Q878.9827013689189 276.89498620984705 882.2604468355572 274.96859194436666Q885.5381923021955 273.07094983210243 890.3973061957206 273.07094983210243L890.3973061957206 273.07094983210243L904.9458957230798 273.07094983210243Q909.9200182294695 273.07094983210243 913.25526800254 274.96859194436666Q916.5905177756106 276.89498620984705 919.5232374036553 281.03529627296905ZM897.2690708143746 305.01459205521735L896.665275596836 305.01459205521735Q889.9947760506948 315.6241365919675 884.4456104799827 330.37399119183965Q878.8676927560546 345.1238457917118 874.842391305797 360.7075128348516L874.842391305797 360.7075128348516L918.6894249603877 360.7075128348516Q914.4628584376173 345.1238457917118 908.884940713689 330.37399119183965Q903.3357751429769 315.6241365919675 897.2690708143746 305.01459205521735L897.2690708143746 305.01459205521735ZM1047.067789070386 393.25495027550517L1047.067789070386 393.25495027550517Q1054.4570924469301 393.25495027550517 1058.6549068164845 391.73108615505055Q1062.8527211860387 390.20722203459593 1065.181645596545 387.99330623695425Q1067.4818178538349 385.7793904393127 1069.2069470468023 383.53672248845487L1069.2069470468023 383.53672248845487Q1070.8170676269053 381.5240717633261 1071.880897295902 380.5177464007618Q1072.9447269648986 379.51142103819734 1074.871121230379 379.0801387399555L1074.871121230379 379.0801387399555Q1076.481241810482 378.59135213528134 1080.0752609624979 378.4475913692007Q1083.6692801145132 378.27507844990396 1087.263299266529 378.27507844990396Q1090.8573184185445 378.27507844990396 1092.2661739261348 378.47634352241687L1092.2661739261348 378.47634352241687Q1094.3938332641278 378.59135213528134 1095.1988935541794 379.31015596568454L1095.1988935541794 379.31015596568454Q1096.0039538442309 380.0002076428715 1096.205218916744 382.32913205337763L1096.205218916744 382.32913205337763Q1096.492740448905 385.54937321358364 1096.5502447553374 390.005956962083Q1096.6077490617695 394.4625407105824 1096.4064839892567 397.6827818707884L1096.4064839892567 397.6827818707884Q1096.291475376392 398.7178593865689 1096.0614581506632 399.40791106375593Q1095.8026887717178 400.126714894159 1094.9976284816667 401.53557040174917L1094.9976284816667 401.53557040174917Q1093.962550965886 403.1456909818522 1091.0585834910573 406.2221713759776Q1088.1258638630127 409.327403923319 1082.461689679436 412.6051493899573Q1076.7975154958594 415.8828948565956 1067.8555958456445 418.21181926710176Q1058.9136761954296 420.5407436776078 1045.8601986353087 420.5407436776078L1045.8601986353087 420.5407436776078Q1031.9154043254882 420.5407436776078 1019.7819956682833 416.94672452559223Q1007.6485870110786 413.35270537357655 998.5054022883509 404.87082017481964Q989.362217565623 396.38893497606284 984.2443342931529 381.9266019083519Q979.1552031738987 367.464268840641 979.1552031738987 345.8426496221149L979.1552031738987 345.8426496221149Q979.1552031738987 321.77709738021827 987.4933276065749 304.95708774878506Q995.8314520392512 288.1083259641358 1011.185101856662 279.33891923321767Q1026.5675038272889 270.54076034908337 1047.5853278282764 270.54076034908337L1047.5853278282764 270.54076034908337Q1062.3351824281485 270.54076034908337 1071.2771020783634 273.5597364367766Q1080.2190217285784 276.6074646776858 1084.8768705495904 280.6902704343755Q1089.534719370603 284.77307619106534 1091.4611136360832 287.8208044319746L1091.4611136360832 287.8208044319746Q1092.1511653132702 288.9421384074035 1092.4674389986476 289.77595085067105Q1092.7549605308088 290.6385154471549 1092.8699691436732 292.4786532529869L1092.8699691436732 292.4786532529869Q1093.1574906758347 294.89383412314135 1093.013729909754 299.5516829441536Q1092.8699691436732 304.1807796119497 1092.2661739261348 307.71729445753306L1092.2661739261348 307.71729445753306Q1091.8636437811087 309.9599624083909 1090.943574878193 310.6500140855778L1090.943574878193 310.6500140855778Q1090.5410447331672 311.05254423060364 1089.534719370603 311.368817915981Q1088.5283940080385 311.6850916013584 1086.4869911296937 311.6850916013584L1086.4869911296937 311.6850916013584Q1083.2667499694876 311.6850916013584 1079.212696366014 311.4263222224132Q1075.1873949157564 311.1675528434681 1073.1459920374114 310.85127915809073L1073.1459920374114 310.85127915809073Q1070.730811167257 310.448749013065 1069.609477191828 309.7011930294457Q1068.5168953696154 308.95363704582644 1067.3955613941864 307.31476431250735L1067.3955613941864 307.31476431250735Q1065.5841757415706 304.69831836983997 1061.1275919930713 301.24805998390497Q1056.6710082445718 297.8265537511861 1046.4639938528476 297.8265537511861L1046.4639938528476 297.8265537511861Q1032.116669398001 297.8265537511861 1022.8009717559765 308.89613273939426Q1013.5140262671681 319.9657117276024 1013.5140262671681 344.7213156466861L1013.5140262671681 344.7213156466861Q1013.5140262671681 369.39066310612134 1023.2610062074345 381.3228066908133Q1033.036738300917 393.25495027550517 1047.067789070386 393.25495027550517Z " fill="#b88740" transform="matrix(0.7979477780583062,0,0,0.7979477780583062,0,24.27653717535796)"/></g></svg>